<svg width="154" height="50" viewBox="0 0 154 50" fill="none" xmlns="http://www.w3.org/2000/svg">
<g clip-path="url(#clip0_5_169)">
<path d="M79.5072 16.5611L86.8339 16.1471C87.0011 17.1944 87.3075 17.9737 87.809 18.5339C88.6169 19.4106 89.7312 19.849 91.2077 19.849C92.2941 19.849 93.1577 19.6298 93.7428 19.1671C94.2999 18.8018 94.6342 18.2173 94.6342 17.6084C94.6342 17.0239 94.3278 16.4637 93.7985 16.0984C93.2413 15.66 91.932 15.2216 89.8705 14.832C86.4996 14.1744 84.076 13.2976 82.6552 12.1773C81.2344 11.1301 80.4266 9.59573 80.4823 7.96397C80.4823 6.84366 80.8723 5.72335 81.5966 4.79788C82.4323 3.75063 83.5745 2.92257 84.9396 2.45983C86.4161 1.89968 88.4776 1.60742 91.0684 1.60742C94.2442 1.60742 96.6679 2.11887 98.3394 3.16612C100.011 4.18901 101.014 5.84512 101.32 8.1101L94.0771 8.47542C93.8821 7.50124 93.492 6.79495 92.8513 6.33221C92.2106 5.86948 91.3748 5.65029 90.2884 5.65029C89.3969 5.65029 88.7283 5.82077 88.2826 6.13738C87.8647 6.42963 87.5861 6.86802 87.614 7.35511C87.614 7.72043 87.8368 8.06139 88.1711 8.28058C88.5333 8.57284 89.3969 8.84074 90.7619 9.08428C94.1328 9.7175 96.5286 10.3507 98.0051 11.0083C99.4815 11.6659 100.54 12.4696 101.181 13.4194C101.849 14.3936 102.184 15.5139 102.156 16.6586C102.156 18.0224 101.71 19.3863 100.819 20.531C99.8994 21.7243 98.618 22.6498 97.1136 23.21C95.5257 23.8188 93.5199 24.1354 91.1241 24.1354C86.8897 24.1354 83.9645 23.4291 82.3209 21.9922C80.6773 20.5553 79.7022 18.7531 79.5072 16.5611ZM1.75507 23.7701V1.9971H14.5977C16.9656 1.9971 18.8043 2.16758 20.0579 2.5329C21.2836 2.87386 22.3701 3.58014 23.0944 4.52997C23.9023 5.57722 24.2923 6.79495 24.2645 8.06139C24.348 10.2046 23.0944 12.2504 20.9493 13.322C20.1136 13.736 19.1943 14.0283 18.2471 14.1744C18.9436 14.3449 19.64 14.6371 20.2529 14.9781C20.7265 15.3191 21.1165 15.7087 21.4787 16.1228C21.8965 16.5368 22.2587 16.9995 22.5651 17.4866L26.2981 23.7945H17.5507L13.4276 17.0969C12.8983 16.2445 12.4526 15.6844 12.0347 15.4165C11.4776 15.0755 10.809 14.905 10.1404 14.905H9.47178V23.7458H1.75507V23.7701ZM9.47178 10.8135H12.7312C13.4276 10.7648 14.0962 10.6673 14.7648 10.5212C15.2663 10.4481 15.712 10.2046 16.0185 9.83928C16.7706 8.96251 16.6592 7.72043 15.7399 6.96543C15.2384 6.60012 14.2634 6.40528 12.8705 6.40528H9.47178V10.8135ZM0 42.4257L7.3267 42.0117C7.49385 43.059 7.80029 43.8383 8.30174 44.3985C9.08177 45.2752 10.224 45.738 11.7004 45.738C12.7869 45.738 13.6505 45.5188 14.2355 45.056C14.7927 44.6664 15.127 44.1062 15.127 43.4973C15.127 42.9128 14.8205 42.3527 14.2912 41.9874C13.7341 41.549 12.4247 41.1106 10.3354 40.7209C6.96454 40.0633 4.54088 39.1866 3.12012 38.0663C1.69935 37.019 0.891462 35.4847 0.947178 33.8529C0.947178 32.7326 1.33719 31.6123 2.06151 30.6868C2.89725 29.6396 4.03944 28.8115 5.40449 28.3488C6.88097 27.7886 8.94248 27.4964 11.5333 27.4964C14.7091 27.4964 17.1328 28.0078 18.8043 29.0551C20.4758 30.1023 21.4508 31.7341 21.7572 33.999L14.5141 34.3644C14.3191 33.3902 13.9291 32.6839 13.2884 32.2212C12.6755 31.7584 11.8119 31.5392 10.7254 31.5636C9.83394 31.5636 9.16534 31.7341 8.71961 32.075C8.27388 32.3673 8.02316 32.8057 8.05101 33.2928C8.05101 33.6581 8.27388 33.999 8.60818 34.2182C8.97033 34.5105 9.83394 34.7784 11.199 35.0219C14.5698 35.6552 16.9656 36.2884 18.4421 36.9459C19.9186 37.6035 20.9772 38.4072 21.6179 39.3571C22.2865 40.3312 22.6208 41.4516 22.6208 42.5719C22.6208 43.9357 22.1473 45.2752 21.2836 46.4199C20.3643 47.6133 19.0829 48.5387 17.5785 49.0989C15.9906 49.7078 13.9848 50.0244 11.589 50.0244C7.35456 50.0244 4.42945 49.3181 2.78582 47.8812C1.14219 46.4199 0.222865 44.6176 0 42.4257H0Z" fill="#FFFDFD"/>
<path d="M37.0514 40.7209L43.7931 42.4988C43.4309 43.9844 42.6787 45.397 41.648 46.6391C40.7008 47.735 39.4472 48.5874 38.0264 49.1476C36.5778 49.7077 34.7392 50 32.5105 50C29.8083 50 27.5796 49.659 25.8803 48.9771C24.153 48.2952 22.6766 47.0774 21.4229 45.3483C20.1693 43.6191 19.5564 41.4028 19.5564 38.6995C19.5564 35.095 20.6429 32.3185 22.8437 30.3945C25.0445 28.4705 28.1368 27.4963 32.1483 27.4963C35.2963 27.4963 37.7478 28.0565 39.5586 29.1524C41.3415 30.2728 42.6787 31.9776 43.5702 34.2669L36.7728 35.5821C36.6056 35.0706 36.3549 34.5592 36.0206 34.1208C35.6028 33.6093 35.0734 33.2197 34.4327 32.9274C33.792 32.6352 33.0677 32.5134 32.3433 32.5134C30.5883 32.5134 29.2511 33.1223 28.3318 34.3643C27.6353 35.2655 27.2732 36.7024 27.2732 38.6507C27.2732 41.0619 27.691 42.718 28.5268 43.6191C29.3625 44.5202 30.5326 44.9586 32.0648 44.9586C33.5412 44.9586 34.6556 44.5933 35.4077 43.887C36.1599 43.132 36.7171 42.0847 37.0514 40.7209ZM52.7913 27.8617H60.4801V35.4846H68.8933V27.8617H76.6379V49.6347H68.8933V40.8183H60.4801V49.6347H52.7913V27.8617Z" fill="#FFFDFD"/>
<path d="M75.5792 38.7482C75.5792 35.1924 76.7214 32.416 78.9779 30.4432C81.2344 28.4705 84.4103 27.472 88.4497 27.472C92.6006 27.472 95.7764 28.4462 98.0329 30.3945C100.289 32.3429 101.404 35.0706 101.404 38.5777C101.404 41.1349 100.902 43.2051 99.9273 44.8368C98.9801 46.4442 97.5036 47.7594 95.6928 48.6361C93.8263 49.5373 91.5141 50 88.7561 50C85.9425 50 83.6302 49.6103 81.7916 48.831C79.8972 48.0029 78.3372 46.7121 77.3064 45.1291C76.1642 43.4242 75.5792 41.3054 75.5792 38.7482ZM83.2681 38.7725C83.2681 40.9644 83.7417 42.5475 84.661 43.5217C85.5803 44.4715 86.8618 44.9586 88.4776 44.9586C90.1212 44.9586 91.4027 44.4959 92.322 43.546C93.2413 42.5962 93.687 40.9157 93.687 38.4803C93.687 36.4345 93.2135 34.9245 92.2663 33.999C91.3191 33.0492 90.0376 32.5865 88.4218 32.5865C87.0011 32.5377 85.636 33.0735 84.6889 34.0234C83.7417 34.9732 83.2681 36.5562 83.2681 38.7725ZM109.288 38.7482C109.288 35.1924 110.43 32.416 112.686 30.4432C114.943 28.4705 118.119 27.472 122.158 27.472C126.309 27.472 129.513 28.4462 131.741 30.3945C133.97 32.3429 135.112 35.0706 135.112 38.5777C135.112 41.1349 134.611 43.2051 133.636 44.8368C132.688 46.4442 131.212 47.7594 129.401 48.6361C127.535 49.5373 125.222 50 122.465 50C119.651 50 117.339 49.6103 115.5 48.831C113.606 48.0029 112.046 46.7121 111.015 45.1291C109.873 43.4242 109.288 41.3054 109.288 38.7482ZM116.976 38.7725C116.976 40.9644 117.45 42.5475 118.369 43.5217C119.289 44.4715 120.57 44.9586 122.186 44.9586C123.83 44.9586 125.111 44.4959 126.03 43.546C126.95 42.5962 127.395 40.9157 127.395 38.4803C127.395 36.4345 126.922 34.9245 125.975 33.999C125.027 33.0492 123.746 32.5865 122.13 32.5865C120.709 32.5377 119.317 33.0735 118.397 34.0234C117.45 34.9732 116.976 36.5562 116.976 38.7725Z" fill="#FFFDFD"/>
<path d="M134.304 27.8617H141.993V44.2767H154V49.6347H134.276V27.8617H134.304Z" fill="#FFFDFD"/>
<path d="M125.829 26.6051C133.57 21.5053 135.958 12.8602 131.161 7.29584C126.365 1.73146 116.201 1.35489 108.46 6.45474C100.719 11.5546 98.3319 20.1997 103.128 25.764C107.925 31.3284 118.088 31.705 125.829 26.6051Z" fill="black"/>
<path d="M125.92 26.2017C133.661 21.1018 136.048 12.4568 131.251 6.8924C126.455 1.32801 116.291 0.951442 108.55 6.0513C100.809 11.1512 98.4221 19.7962 103.219 25.3606C108.015 30.925 118.179 31.3016 125.92 26.2017Z" fill="black"/>
<path d="M125.92 26.2017C133.661 21.1018 136.048 12.4568 131.251 6.8924C126.455 1.32801 116.291 0.951442 108.55 6.0513C100.809 11.1512 98.4221 19.7962 103.219 25.3606C108.015 30.925 118.179 31.3016 125.92 26.2017Z" stroke="#FFFDFD" stroke-miterlimit="10"/>
<path d="M109.406 14.5259L112.191 12.8211L115.618 17.0832C116.203 17.7651 116.649 18.4957 116.983 19.2994C117.178 19.9083 117.122 20.5659 116.844 21.1504C116.482 21.881 115.897 22.4899 115.117 22.9283C114.197 23.4884 113.417 23.805 112.749 23.9024C112.108 23.9999 111.439 23.9024 110.826 23.6589C110.158 23.3666 109.573 22.9526 109.127 22.4168L111.523 20.4684C111.718 20.7363 111.969 20.9799 112.247 21.1747C112.442 21.2965 112.665 21.3696 112.916 21.3696C113.111 21.3696 113.306 21.2965 113.445 21.1991C113.724 21.053 113.919 20.7607 113.891 20.4684C113.807 20.0544 113.612 19.6404 113.306 19.3238L109.406 14.5259ZM117.763 17.2293L120.298 15.4757C120.577 15.768 120.939 15.9872 121.329 16.109C121.886 16.2551 122.471 16.1577 122.945 15.8411C123.279 15.6462 123.558 15.3783 123.669 15.0374C123.836 14.599 123.558 14.1119 123.056 13.9658C122.973 13.9414 122.889 13.9171 122.805 13.9171C122.471 13.8927 121.886 14.0145 121.023 14.3311C119.602 14.8425 118.487 15.0374 117.652 14.9643C116.844 14.8912 116.092 14.5259 115.646 13.9171C115.312 13.503 115.144 13.0159 115.117 12.5288C115.117 11.9687 115.284 11.4085 115.646 10.9458C116.175 10.2882 116.816 9.72806 117.596 9.28968C118.766 8.5834 119.797 8.24243 120.688 8.24243C121.58 8.24243 122.415 8.60775 123.195 9.36274L120.688 11.0919C120.187 10.5318 119.24 10.41 118.599 10.8484L118.515 10.9214C118.237 11.0676 118.042 11.2868 117.93 11.5547C117.847 11.7495 117.902 11.9687 118.042 12.1392C118.153 12.2609 118.32 12.3584 118.515 12.3584C118.738 12.3827 119.128 12.2853 119.685 12.0661C121.078 11.5547 122.137 11.2624 122.861 11.165C123.474 11.0676 124.115 11.1163 124.7 11.3355C125.229 11.5303 125.675 11.8713 125.981 12.2853C126.371 12.7724 126.594 13.3569 126.622 13.9658C126.65 14.599 126.455 15.2078 126.065 15.7437C125.563 16.4012 124.923 16.9614 124.171 17.3998C122.638 18.3252 121.385 18.7149 120.382 18.5688C119.295 18.4227 118.404 17.9356 117.763 17.2293Z" fill="#FFFDFD"/>
</g>
<defs>
<clipPath id="clip0_5_169">
<rect width="154" height="50" fill="white"/>
</clipPath>
</defs>
</svg>
